<?xml version="1.0" encoding="UTF-8"?>
<svg version="1.1" xmlns="http://www.w3.org/2000/svg" width="256" height="256">
<path d="M0 0 C1.67542976 0.28604898 3.34385343 0.61781233 5 1 C3.49616703 5.21073233 0.79335044 6.83237117 -3 9 C-3.99 9 -4.98 9 -6 9 C-6 9.66 -6 10.32 -6 11 C-6.804375 11.20625 -7.60875 11.4125 -8.4375 11.625 C-9.7059375 12.305625 -9.7059375 12.305625 -11 13 C-11.89830839 16.05272465 -11.89830839 16.05272465 -12 19 C-5.5913476 23.27243493 0.97437558 23.32028462 8.5 23.65625 C12 24 12 24 15.21484375 24.96484375 C20.30008133 26.3555434 25.31792483 26.67809838 30.5625 27.0625 C36.42761763 27.51308999 42.20350485 27.96523862 48 29 C48.99 29 49.98 29 51 29 C55.38303937 29.4583685 59.75561895 30.003453 64.12915039 30.54418945 C66.26578154 30.8067588 68.40331911 31.06072723 70.54101562 31.31445312 C96.46266499 34.46655971 96.46266499 34.46655971 108 40 C108.33 40.66 108.66 41.32 109 42 C109.88300781 41.3503125 110.76601562 40.700625 111.67578125 40.03125 C123.41252627 31.72279209 123.41252627 31.72279209 131.25390625 32.421875 C137.02432299 33.63669958 142.71458558 35.35729279 148 38 C148 38.66 148 39.32 148 40 C148.66 40 149.32 40 150 40 C155.68442998 46.78022372 159.99539354 55.53497023 163.02734375 63.80078125 C164.36968316 66.83586995 165.97292409 66.80324906 169 68 C170.87017968 69.88542571 172.38592496 71.87864423 174 74 C173.36108398 76.38769531 173.36108398 76.38769531 172 79 C163.80474356 82.63261867 154.23625133 82.41306378 145.4375 82.25 C144.19315186 82.23614258 142.94880371 82.22228516 141.66674805 82.20800781 C137.7773394 82.15609352 133.88895723 82.07822896 130 82 C128.75444336 81.98453125 127.50888672 81.9690625 126.22558594 81.953125 C111.68719085 81.76904614 98.02828318 80.98952498 84 77 C84 77.66 84 78.32 84 79 C84.84304687 79.06058594 85.68609375 79.12117188 86.5546875 79.18359375 C88.19824219 79.30927734 88.19824219 79.30927734 89.875 79.4375 C91.51082031 79.55931641 91.51082031 79.55931641 93.1796875 79.68359375 C96 80 96 80 98 81 C100.20266316 81.38787256 102.41224568 81.73709495 104.625 82.0625 C105.81351563 82.23910156 107.00203125 82.41570312 108.2265625 82.59765625 C109.14179688 82.73042969 110.05703125 82.86320312 111 83 C110.67 84.32 110.34 85.64 110 87 C87.74982195 88.88637361 65.5201026 89.20076951 43.20464325 89.18847656 C41.01982884 89.18750878 38.83502167 89.18846604 36.65020752 89.18969727 C-4.50004459 89.19820398 -4.50004459 89.19820398 -23.4375 86.25 C-24.49130859 86.105625 -25.54511719 85.96125 -26.63085938 85.8125 C-34.50673032 84.61199847 -44.17705484 82.82294516 -50 77 C-50.33333333 71.66666667 -50.33333333 71.66666667 -49 69 C-48.34 69 -47.68 69 -47 69 C-47 68.34 -47 67.68 -47 67 C-44.35261084 65.5393715 -43.10551666 65 -40 65 C-40 64.34 -40 63.68 -40 63 C-39.00419922 62.80083984 -39.00419922 62.80083984 -37.98828125 62.59765625 C-37.10527344 62.42105469 -36.22226562 62.24445313 -35.3125 62.0625 C-30 61 -30 61 -27.54296875 60.55859375 C-24.96131907 60.05483838 -24.96131907 60.05483838 -22.44140625 59.0390625 C-17.3566116 57.50381236 -12.20191179 56.99545984 -6.9375 56.375 C-5.32391602 56.17390625 -5.32391602 56.17390625 -3.67773438 55.96875 C0.91402565 55.4107928 5.36868891 54.92128083 10 55 C10.495 54.01 10.495 54.01 11 53 C13.17986817 52.76633706 15.37148546 52.63917389 17.5625 52.5625 C26.42324304 52.19660436 26.42324304 52.19660436 34 48 C26.6419589 44.56624748 19.00227892 43.85450402 11 44 C10.67 43.67 10.34 43.34 10 43 C8.32779197 42.69076378 6.64556225 42.43538816 4.9609375 42.203125 C-29.68794319 37.19739961 -29.68794319 37.19739961 -36.875 28.8125 C-38.39617085 25.00957287 -38.27025634 21.82625994 -37 18 C-34.11133037 14.30892214 -31.46155603 12.40220332 -27 11 C-27 10.34 -27 9.68 -27 9 C-19.25664137 5.79366656 -11.70013179 3.26844817 -3.484375 1.578125 C-1.0710408 1.24718768 -1.0710408 1.24718768 0 0 Z M101 46 C100.5153125 46.42410156 100.030625 46.84820312 99.53125 47.28515625 C98.10738829 48.53103524 96.679996 49.77288541 95.25 51.01171875 C93.88977282 52.21372506 92.54941045 53.43952597 91.25 54.70703125 C84.75839425 60.89434298 76.84767792 64.79996849 69 69 C69.27617533 70.94074861 69.27617533 70.94074861 70 73 C71.485 73.99 71.485 73.99 73 75 C73.99 74.67 74.98 74.34 76 74 C76 72.35 76 70.7 76 69 C76.58007812 68.82984375 77.16015625 68.6596875 77.7578125 68.484375 C86.21289583 65.86134585 90.83112414 62.72929096 95.54296875 55.1953125 C97.41137924 52.38017391 99.51074956 50.2696107 102 48 C101.505 47.01 101.505 47.01 101 46 Z " fill="#0E100E" transform="translate(53,161)"/>
<path d="M0 0 C0.66 0.33 1.32 0.66 2 1 C2.87186147 3.68379125 3.6473866 6.33971654 4.375 9.0625 C6.05753345 15.11144363 7.9586139 20.48044746 11 26 C11 26.66 11 27.32 11 28 C11.78375 28.268125 12.5675 28.53625 13.375 28.8125 C16 30 16 30 18 33 C17.360625 33.12375 16.72125 33.2475 16.0625 33.375 C15.381875 33.58125 14.70125 33.7875 14 34 C13.505 34.99 13.505 34.99 13 36 C12.01 36 11.02 36 10 36 C13.95825209 40.82485166 17.59160025 44.83410746 23 48 C22.67 48.99 22.34 49.98 22 51 C17.05 51.495 17.05 51.495 12 52 C12.6496875 52.69867188 13.299375 53.39734375 13.96875 54.1171875 C14.8040625 55.02726562 15.639375 55.93734375 16.5 56.875 C17.3353125 57.77992187 18.170625 58.68484375 19.03125 59.6171875 C21 62 21 62 21 64 C21.71542969 64.27585937 22.43085937 64.55171875 23.16796875 64.8359375 C25.95738855 65.98248522 28.62290358 67.26227115 31.3125 68.625 C32.63701172 69.29402344 32.63701172 69.29402344 33.98828125 69.9765625 C34.65214844 70.31429687 35.31601563 70.65203125 36 71 C36 71.99 36 72.98 36 74 C29.95942424 76.27057103 24.43681228 77.48914188 18 78 C24.56710189 87.85065284 32.58739011 92.85739728 44 96 C44.09796875 95.30132812 44.1959375 94.60265625 44.296875 93.8828125 C44.44640625 92.97273438 44.5959375 92.06265625 44.75 91.125 C44.88921875 90.22007813 45.0284375 89.31515625 45.171875 88.3828125 C46 86 46 86 48.078125 84.6796875 C48.71234375 84.45539063 49.3465625 84.23109375 50 84 C55.1027162 89.1027162 54.51575152 99.18229119 55 106 C55.70576172 105.18595703 55.70576172 105.18595703 56.42578125 104.35546875 C57.04839844 103.64003906 57.67101562 102.92460938 58.3125 102.1875 C58.92738281 101.47980469 59.54226562 100.77210937 60.17578125 100.04296875 C63.5794814 96.23111612 63.5794814 96.23111612 65 95 C67.1875 95.3125 67.1875 95.3125 69 96 C68.74323894 103.06092922 66.6234739 107.64004353 62 113 C59.75215579 114.85222363 57.43616708 116.39212973 55 118 C55 118.66 55 119.32 55 120 C55.59167969 119.84402344 56.18335938 119.68804687 56.79296875 119.52734375 C64.64147627 117.5940246 64.64147627 117.5940246 69 119 C69.625 120.875 69.625 120.875 70 123 C67.16346212 125.83653788 64.02992888 126.21161132 60.21484375 127.21875 C57.82359908 127.77386246 57.82359908 127.77386246 57 130 C54.36 130 51.72 130 49 130 C49 130.66 49 131.32 49 132 C48.39414063 132.06832031 47.78828125 132.13664063 47.1640625 132.20703125 C44.82352345 132.82656105 44.82352345 132.82656105 43.5859375 135.07421875 C40.05267857 142.69921948 37.7081712 148.53696484 38 157 C38.391875 156.154375 38.78375 155.30875 39.1875 154.4375 C41.18033046 150.65799395 43.46101568 147.43105989 46 144 C47.32 144.33 48.64 144.66 50 145 C49.50647235 148.15857693 48.66528547 150.97596962 47.5 153.9375 C46.20413935 157.26881005 45.4451962 160.4384304 45 164 C45.391875 163.608125 45.78375 163.21625 46.1875 162.8125 C46.785625 162.214375 47.38375 161.61625 48 161 C48.804375 160.154375 49.60875 159.30875 50.4375 158.4375 C53.14402188 155.86300358 55.18594445 154 59 154 C57.67902162 158.06454887 56.21674841 162.02480211 54.5859375 165.97265625 C53.76862204 168.44884793 53.76862204 168.44884793 54 173 C57.96 173.33 61.92 173.66 66 174 C64 178 64 178 62 179 C65.27502921 181.18335281 67.82010703 181.8049939 71.625 182.75 C78.00307314 184.49669223 82.83745832 186.9027447 88 191 C87.67 191.66 87.34 192.32 87 193 C79.76628251 193.28472197 72.93741686 192.18149882 65.8125 191 C63.50707949 190.62151721 61.20110558 190.24638632 58.89453125 189.875 C57.88237549 189.70742187 56.87021973 189.53984375 55.82739258 189.3671875 C53.17835106 189.02316208 50.66712239 188.93157308 48 189 C48 188.34 48 187.68 48 187 C47.16106201 187.26151855 47.16106201 187.26151855 46.30517578 187.52832031 C43.69969626 188.06144745 41.75146034 187.89266379 39.1171875 187.546875 C37.63774658 187.3619751 37.63774658 187.3619751 36.12841797 187.17333984 C35.05479004 187.0336377 33.98116211 186.89393555 32.875 186.75 C20.42818201 185.2135987 7.9710979 184.05892614 -4.52392578 183.00292969 C-24.27242266 181.32973583 -24.27242266 181.32973583 -28 179 C-27.828125 176.63671875 -27.828125 176.63671875 -27 174 C-24.671875 172.76953125 -24.671875 172.76953125 -21.75 171.8125 C-16.12808571 169.50532478 -14.1905921 167.09220298 -11.8046875 161.59765625 C-10.20084205 156.42019401 -9.75356121 151.13438363 -9.3125 145.75 C-9.20550781 144.52796875 -9.09851562 143.3059375 -8.98828125 142.046875 C-8.64273276 138.88767928 -8.64273276 138.88767928 -11 137 C-11 136.01 -11 135.02 -11 134 C-10.01 134 -9.02 134 -8 134 C-8.495 130.535 -8.495 130.535 -9 127 C-9.66 127 -10.32 127 -11 127 C-11.33 127.99 -11.66 128.98 -12 130 C-14.97 130.33 -17.94 130.66 -21 131 C-21.33 130.01 -21.66 129.02 -22 128 C-22.5775 128.33 -23.155 128.66 -23.75 129 C-26 130 -26 130 -30 130 C-30 130.66 -30 131.32 -30 132 C-32.31 132 -34.62 132 -37 132 C-37 130.02 -37 128.04 -37 126 C-40.96 125.34 -44.92 124.68 -49 124 C-49 121 -49 121 -47 119 C-45.2675 118.4121875 -45.2675 118.4121875 -43.5 117.8125 C-36.88086014 115.45284319 -30.80965919 111.10539875 -26 106 C-29.32604951 104.89131683 -32.53058454 104.45822468 -36 104 C-36 103.01 -36 102.02 -36 101 C-38.31 100.67 -40.62 100.34 -43 100 C-43.33 99.01 -43.66 98.02 -44 97 C-42.07312328 94.50639483 -40.93362287 93.98308034 -37.8125 93.1875 C-33.62552057 91.88335887 -31.14551627 90.07903231 -27.796875 87.33984375 C-26 86 -26 86 -23 85 C-23 84.34 -23 83.68 -23 83 C-22.34 83 -21.68 83 -21 83 C-21 81.35 -21 79.7 -21 78 C-22.670625 77.814375 -22.670625 77.814375 -24.375 77.625 C-28 77 -28 77 -30 75 C-32.57061311 74.35232207 -32.57061311 74.35232207 -35 74 C-35.495 74.99 -35.495 74.99 -36 76 C-36.66 75.67 -37.32 75.34 -38 75 C-37.67 73.35 -37.34 71.7 -37 70 C-34.03 69.01 -31.06 68.02 -28 67 C-28 66.34 -28 65.68 -28 65 C-23.61538462 62 -23.61538462 62 -21 62 C-20.67 61.01 -20.34 60.02 -20 59 C-19.34 59 -18.68 59 -18 59 C-17.71125 58.401875 -17.4225 57.80375 -17.125 57.1875 C-16 55 -16 55 -14 52 C-16.97 51.67 -19.94 51.34 -23 51 C-23 49.68 -23 48.36 -23 47 C-22.34 47 -21.68 47 -21 47 C-21 46.34 -21 45.68 -21 45 C-19.02 44.34 -17.04 43.68 -15 43 C-15 42.34 -15 41.68 -15 41 C-13.625 39.375 -13.625 39.375 -12 38 C-11.34 38 -10.68 38 -10 38 C-10 37.34 -10 36.68 -10 36 C-10.763125 36.04125 -11.52625 36.0825 -12.3125 36.125 C-15 36 -15 36 -18 34 C-17.8125 32.125 -17.8125 32.125 -17 30 C-15.34795544 29.29788106 -13.68076231 28.63028587 -12 28 C-11.505 26.515 -11.505 26.515 -11 25 C-10.34 25 -9.68 25 -9 25 C-7.05000263 20.35580336 -5.50614312 15.59476235 -3.9375 10.8125 C-3.40634247 9.19355222 -2.87385339 7.57504051 -2.33984375 5.95703125 C-2.10644287 5.24522705 -1.87304199 4.53342285 -1.63256836 3.80004883 C-1 2 -1 2 0 0 Z M-19 77 C-18 79 -18 79 -18 79 Z M37.9375 99 C36.83277344 99.185625 35.72804688 99.37125 34.58984375 99.5625 C33.30787109 99.7790625 33.30787109 99.7790625 32 100 C33.32 100.66 34.64 101.32 36 102 C36 102.66 36 103.32 36 104 C35.15695313 103.98839844 34.31390625 103.97679688 33.4453125 103.96484375 C32.34960938 103.95582031 31.25390625 103.94679688 30.125 103.9375 C29.03445312 103.92589844 27.94390625 103.91429688 26.8203125 103.90234375 C24.04822454 103.80255697 24.04822454 103.80255697 22 105 C21.67 104.34 21.34 103.68 21 103 C21 103.99 21 104.98 21 106 C21.66 106 22.32 106 23 106 C23.33 106.99 23.66 107.98 24 109 C24.66 109 25.32 109 26 109 C26 109.66 26 110.32 26 111 C28.05758772 112.48074954 30.08788652 113.81476849 32.25 115.125 C32.83652344 115.49753906 33.42304687 115.87007812 34.02734375 116.25390625 C37.38669326 118.31481056 38.95471004 119 43 119 C42.67 118.01 42.34 117.02 42 116 C41.34 116 40.68 116 40 116 C37.57142857 108.57142857 37.57142857 108.57142857 39 105 C41.31 105.33 43.62 105.66 46 106 C45.67 103.36 45.34 100.72 45 98 C42.65099292 98 40.2426261 98.61176824 37.9375 99 Z M44 120 C45 123 45 123 45 123 Z M18 122 C19 124 19 124 19 124 Z M20 124 C20 125.98 20 127.96 20 130 C19.0925 129.835 18.185 129.67 17.25 129.5 C13.88912497 128.89862854 13.88912497 128.89862854 10 129 C10 128.34 10 127.68 10 127 C7.525 126.01 7.525 126.01 5 125 C5.11135894 128.4797406 5.24162132 131.95853934 5.375 135.4375 C5.4059375 136.41138672 5.436875 137.38527344 5.46875 138.38867188 C5.71400387 144.49958085 6.49163574 150.0707795 8 156 C8.66 155.01 9.32 154.02 10 153 C10.66 153 11.32 153 12 153 C12.33 153.66 12.66 154.32 13 155 C13.99 155 14.98 155 16 155 C16.81604999 153.0848421 17.62770632 151.16781166 18.4375 149.25 C18.88996094 148.18265625 19.34242187 147.1153125 19.80859375 146.015625 C20.73979553 143.6586159 21.4784072 141.47007165 22 139 C22.66 139 23.32 139 24 139 C23.98839844 139.71285156 23.97679688 140.42570312 23.96484375 141.16015625 C23.91393974 146.56325366 24.05391729 151.67828475 25 157 C28.12120836 155.43939582 28.49704809 152.31264415 29.625 149.1875 C32.0972381 142.6299434 35.14918354 137.2819437 39.265625 131.5859375 C40.92640464 129.10973002 42.00875491 126.8017846 43 124 C39.37064825 123.85482593 36.58900531 123.76439788 33.1875 125.125 C28.52372166 126.40525288 24.60715644 125.18365679 20 124 Z M7 156 C8 159 8 159 8 159 Z M15 156 C14.67 156.66 14.34 157.32 14 158 C14.66 158 15.32 158 16 158 C15.67 157.34 15.34 156.68 15 156 Z " fill="#0F110F" transform="translate(73,1)"/>
<path d="M0 0 C1.67542976 0.28604898 3.34385343 0.61781233 5 1 C3.49616703 5.21073233 0.79335044 6.83237117 -3 9 C-3.99 9 -4.98 9 -6 9 C-6 9.66 -6 10.32 -6 11 C-6.804375 11.20625 -7.60875 11.4125 -8.4375 11.625 C-9.283125 12.07875 -10.12875 12.5325 -11 13 C-11.89830839 16.05272465 -11.89830839 16.05272465 -12 19 C-6.5165067 22.6556622 -1.53159505 23.0911887 4.9375 23.4375 C17.15380804 24.15380804 17.15380804 24.15380804 21 28 C23.16976701 28.28902484 25.34776869 28.51656996 27.52734375 28.71875 C28.52176231 28.81295227 28.52176231 28.81295227 29.53627014 28.90905762 C31.66964471 29.1102312 33.80353147 29.3052378 35.9375 29.5 C37.34183571 29.63109507 38.74613315 29.76260078 40.15039062 29.89453125 C47.65636413 30.59995371 47.65636413 30.59995371 55.16455078 31.28125 C56.06028809 31.36375 56.95602539 31.44625 57.87890625 31.53125 C58.63888916 31.59892578 59.39887207 31.66660156 60.18188477 31.73632812 C62 32 62 32 64 33 C65.93780116 33.19462632 67.87627619 33.38414778 69.81713867 33.54541016 C81.82542026 34.55523855 93.32263536 37.09600851 105 40 C103.8537689 43.43869329 103.5142371 43.51023012 100.5 45.125 C97.02293642 47.17906603 94.41416076 49.45680334 91.625 52.375 C85.01477758 59.19001416 78.50789336 64.41535111 69 66 C69 66.99 69 67.98 69 69 C68.34 69 67.68 69 67 69 C67.90275114 71.9661823 68.49012232 73.63077823 71.0390625 75.4765625 C79.77182376 79.35485828 88.73043442 81.25603396 98.23291016 82.22851562 C100.16230335 82.42613773 102.08282365 82.70666154 104 83 C104.33 83.66 104.66 84.32 105 85 C92.92983519 86.564809 81.10724024 87.30157174 68.94140625 87.265625 C67.29280033 87.26697739 65.64419479 87.26892265 63.99559021 87.27142334 C60.58482975 87.27433527 57.17417563 87.27019769 53.76342773 87.26074219 C49.39224576 87.24921253 45.02130582 87.25601588 40.65013218 87.26788712 C37.26586562 87.27509727 33.8816571 87.27282405 30.49738884 87.26763153 C28.88382882 87.2662997 27.2702635 87.26792639 25.65670967 87.27259064 C23.41756141 87.27765678 21.17881543 87.26995098 18.93969727 87.25878906 C17.66828384 87.25719788 16.39687042 87.25560669 15.08692932 87.25396729 C12 87 12 87 9 85 C9.33 84.34 9.66 83.68 10 83 C9.38592285 82.89977539 8.7718457 82.79955078 8.13916016 82.69628906 C5.29903408 82.22586818 2.46215052 81.73803359 -0.375 81.25 C-1.34050781 81.09273438 -2.30601563 80.93546875 -3.30078125 80.7734375 C-16.51645539 78.46734671 -16.51645539 78.46734671 -22 75 C-22.77099609 72.86816406 -22.77099609 72.86816406 -23 71 C-14.12277691 63.28780988 -0.73683069 59.38227207 11 60 C7.03613508 62.10346606 2.89646703 63.46369869 -1.34375 64.90234375 C-3.98245093 65.99274811 -5.88559925 67.08928006 -8 69 C-8.8042208 71.59855733 -8.8042208 71.59855733 -9 74 C-0.81802984 78.21495433 5.79644818 80.81053478 15 79 C13.78204886 77.71506748 13.78204886 77.71506748 11.0625 76.0625 C8 74 8 74 6 72 C6.0234375 69.59375 6.0234375 69.59375 7 67 C15.97529129 59.96289454 27.70865925 58.28595975 38.58203125 56.125 C49.1283786 54.30013629 49.1283786 54.30013629 58 49 C57.6814823 46.89179203 57.6814823 46.89179203 57 45 C43.10206626 41.02599019 28.92033815 38.9059081 14.67138672 36.59814453 C-22.25965486 30.58131704 -22.25965486 30.58131704 -29 24 C-28.88231248 20.58706205 -28.52982686 18.05965373 -27 15 C-27.33 14.01 -27.66 13.02 -28 12 C-20.90907583 5.27271297 -12.73857554 3.84012001 -3.40625 1.6484375 C-1.06611203 1.23236624 -1.06611203 1.23236624 0 0 Z " fill="#012F55" transform="translate(53,161)"/>
<path d="M0 0 C0.99 0.33 1.98 0.66 3 1 C2.01 1.99 1.02 2.98 0 4 C0.33 4.99 0.66 5.98 1 7 C0.01 8.485 0.01 8.485 -1 10 C-1.66685938 12.45672892 -1.66685938 12.45672892 -1 15 C10.16724073 23.73593457 27.96745038 24.27122963 41.57275391 26.44824219 C47.84498916 27.45801934 54.11070662 28.50470575 60.375 29.5625 C61.58051514 29.76029053 62.78603027 29.95808105 64.02807617 30.16186523 C82.24792632 33.24792632 82.24792632 33.24792632 86 37 C85.9375 38.9375 85.9375 38.9375 85 41 C78.801937 45.84223672 70.28127851 47.23805643 62.73852539 48.68676758 C52.15841177 50.72334014 43.26050402 53.43085807 34 59 C34.39904647 62.79598078 34.39904647 62.79598078 36.84765625 65.58203125 C37.94400391 66.19111328 37.94400391 66.19111328 39.0625 66.8125 C39.79597656 67.23144531 40.52945313 67.65039062 41.28515625 68.08203125 C42.13400391 68.53642578 42.13400391 68.53642578 43 69 C42.67 69.66 42.34 70.32 42 71 C34.43385205 72.70848502 28.93581744 71.36414452 22 68 C18.10841699 65.46980695 18.10841699 65.46980695 17.4375 62.5625 C18 60 18 60 19.8125 57.9375 C24.28810648 55.21703332 29.04047668 53.63290785 34 52 C24.46409823 53.15118093 12.16197207 54.99297444 5 62 C5 63.32 5 64.64 5 66 C15.70718359 69.62911752 26.82510467 71.46363307 38 73 C37.505 74.485 37.505 74.485 37 76 C39.94093953 77.47046976 42.55861718 77.13546009 45.84204102 77.14526367 C46.54654388 77.14862228 47.25104675 77.1519809 47.97689819 77.15544128 C50.31925198 77.16497836 52.66153421 77.16689717 55.00390625 77.16796875 C56.64184091 77.17118445 58.27977529 77.17454875 59.91770935 77.17805481 C63.36531232 77.18405643 66.81289022 77.18589415 70.26049805 77.18530273 C74.63074511 77.18520219 79.00082569 77.198736 83.37103367 77.21607494 C86.76446737 77.22733364 90.15786295 77.22921759 93.5513134 77.22869301 C95.15888977 77.22985694 96.76646766 77.23418698 98.37402534 77.24202538 C109.39562576 77.29064393 120.08219622 76.51910722 131 75 C130.3725589 74.9275708 129.7451178 74.8551416 129.09866333 74.78051758 C103.21209031 71.75819683 103.21209031 71.75819683 95.1640625 65.59375 C94 64 94 64 94 60 C94.66 60 95.32 60 96 60 C96.33 60.99 96.66 61.98 97 63 C99.50447516 64.21869929 99.50447516 64.21869929 102 65 C102.0928125 63.8553125 102.0928125 63.8553125 102.1875 62.6875 C103 60 103 60 105.125 58.3125 C108.35494689 56.83795903 111.56289246 55.87612545 115 55 C114.67 55.99 114.34 56.98 114 58 C111.66666667 59 109.33333333 60 107 61 C106.67 61.99 106.34 62.98 106 64 C106.62044189 64.11593506 107.24088379 64.23187012 107.88012695 64.35131836 C110.69132938 64.87787607 113.50191616 65.40765086 116.3125 65.9375 C117.28896484 66.11990234 118.26542969 66.30230469 119.27148438 66.49023438 C120.20927734 66.66748047 121.14707031 66.84472656 122.11328125 67.02734375 C123.40939331 67.27085571 123.40939331 67.27085571 124.73168945 67.51928711 C127 68 127 68 130 69 C131.155 69 132.31 69 133.5 69 C137 69 137 69 140 70 C140 70.66 140 71.32 140 72 C129.93172831 72.79836516 120.69198892 70.38834491 111 68 C111 68.66 111 69.32 111 70 C111.84304687 70.06058594 112.68609375 70.12117188 113.5546875 70.18359375 C115.19824219 70.30927734 115.19824219 70.30927734 116.875 70.4375 C118.51082031 70.55931641 118.51082031 70.55931641 120.1796875 70.68359375 C123 71 123 71 125 72 C127.20266316 72.38787256 129.41224568 72.73709495 131.625 73.0625 C132.81351563 73.23910156 134.00203125 73.41570312 135.2265625 73.59765625 C136.14179688 73.73042969 137.05703125 73.86320312 138 74 C137.67 75.32 137.34 76.64 137 78 C114.74982195 79.88637361 92.5201026 80.20076951 70.20464325 80.18847656 C68.01982884 80.18750878 65.83502167 80.18846604 63.65020752 80.18969727 C22.49995541 80.19820398 22.49995541 80.19820398 3.5625 77.25 C2.50869141 77.105625 1.45488281 76.96125 0.36914062 76.8125 C-7.50673032 75.61199847 -17.17705484 73.82294516 -23 68 C-23.33333333 62.66666667 -23.33333333 62.66666667 -22 60 C-21.34 60 -20.68 60 -20 60 C-20 59.34 -20 58.68 -20 58 C-17.35261084 56.5393715 -16.10551666 56 -13 56 C-13 55.34 -13 54.68 -13 54 C-12.00419922 53.80083984 -12.00419922 53.80083984 -10.98828125 53.59765625 C-10.10527344 53.42105469 -9.22226562 53.24445313 -8.3125 53.0625 C-3 52 -3 52 -0.54296875 51.55859375 C2.03868093 51.05483838 2.03868093 51.05483838 4.55859375 50.0390625 C9.6433884 48.50381236 14.79808821 47.99545984 20.0625 47.375 C21.67608398 47.17390625 21.67608398 47.17390625 23.32226562 46.96875 C27.91402565 46.4107928 32.36868891 45.92128083 37 46 C37.495 45.01 37.495 45.01 38 44 C40.17986817 43.76633706 42.37148546 43.63917389 44.5625 43.5625 C53.42324304 43.19660436 53.42324304 43.19660436 61 39 C53.6419589 35.56624748 46.00227892 34.85450402 38 35 C37.67 34.67 37.34 34.34 37 34 C35.32779197 33.69076378 33.64556225 33.43538816 31.9609375 33.203125 C-2.68794319 28.19739961 -2.68794319 28.19739961 -9.875 19.8125 C-11.39617085 16.00957287 -11.27025634 12.82625994 -10 9 C-7.11133037 5.30892214 -4.46155603 3.40220332 0 2 C0 1.34 0 0.68 0 0 Z " fill="#002F56" transform="translate(26,170)"/>
<path d="M0 0 C3.76535088 1.47406231 3.76535088 1.47406231 4.79296875 3.77734375 C4.98826172 4.84662109 4.98826172 4.84662109 5.1875 5.9375 C5.33316406 6.72898437 5.47882813 7.52046875 5.62890625 8.3359375 C6.26146591 12.87705004 6.67521855 17.42741912 7 22 C7.47050781 21.45730469 7.94101563 20.91460937 8.42578125 20.35546875 C9.04839844 19.64003906 9.67101562 18.92460938 10.3125 18.1875 C10.92738281 17.47980469 11.54226562 16.77210937 12.17578125 16.04296875 C15.5794814 12.23111612 15.5794814 12.23111612 17 11 C19.1875 11.3125 19.1875 11.3125 21 12 C20.74323894 19.06092922 18.6234739 23.64004353 14 29 C11.75215579 30.85222363 9.43616708 32.39212973 7 34 C7 34.66 7 35.32 7 36 C7.59167969 35.84402344 8.18335938 35.68804687 8.79296875 35.52734375 C16.64147627 33.5940246 16.64147627 33.5940246 21 35 C21.625 36.875 21.625 36.875 22 39 C19.16346212 41.83653788 16.02992888 42.21161132 12.21484375 43.21875 C9.82359908 43.77386246 9.82359908 43.77386246 9 46 C6.36 46 3.72 46 1 46 C1 46.66 1 47.32 1 48 C0.08734375 48.10828125 0.08734375 48.10828125 -0.84375 48.21875 C-3.15802615 48.81962146 -3.15802615 48.81962146 -4.34375 50.96875 C-4.91609375 52.22171875 -4.91609375 52.22171875 -5.5 53.5 C-5.91636719 54.39460938 -6.33273438 55.28921875 -6.76171875 56.2109375 C-7.17035156 57.13132813 -7.57898438 58.05171875 -8 59 C-8.39832031 59.87914062 -8.79664063 60.75828125 -9.20703125 61.6640625 C-10.15299603 63.76992048 -11.08383377 65.88104571 -12 68 C-13.25127906 64.45332822 -12.72285053 62.27746562 -11.5625 58.75 C-11.27503906 57.85796875 -10.98757812 56.9659375 -10.69140625 56.046875 C-10.46324219 55.37140625 -10.23507813 54.6959375 -10 54 C-14.137263 58.42101333 -15.80095296 63.20376162 -17.75 68.8125 C-18.06582031 69.69615234 -18.38164063 70.57980469 -18.70703125 71.49023438 C-19.48011817 73.65722045 -20.24410774 75.82696909 -21 78 C-21.99 78 -22.98 78 -24 78 C-25.14051606 73.01716284 -26.22225866 68.05531868 -27 63 C-28.95088223 68.61854082 -30.63172347 74.21113776 -32 80 C-32.99 79.67 -33.98 79.34 -35 79 C-35.33 76.69 -35.66 74.38 -36 72 C-36.66 72 -37.32 72 -38 72 C-38.33 75.3 -38.66 78.6 -39 82 C-39.99 81.67 -40.98 81.34 -42 81 C-45.39323029 66.97464813 -45.19056754 52.35608805 -45 38 C-41.00125986 38 -39.16526371 39.70550201 -35.9375 41.90625 C-33.93540509 43.24579718 -33.93540509 43.24579718 -31 43 C-31.66 41.35 -32.32 39.7 -33 38 C-28.97052766 36.38821106 -26.02648722 37.83982572 -22 39 C-17.31547758 39.32307051 -14.2710465 38.83669576 -10 37 C-10.6290625 36.64808594 -11.258125 36.29617187 -11.90625 35.93359375 C-20.55792353 30.94324592 -27.71450605 25.58892767 -33 17 C-33 16.01 -33 15.02 -33 14 C-32.01 14 -31.02 14 -30 14 C-30 14.66 -30 15.32 -30 16 C-25.67435795 17.58255197 -21.571279 18.45144652 -17 19 C-17 19.66 -17 20.32 -17 21 C-19.97 21 -22.94 21 -26 21 C-25.16640629 21.83359371 -24.305074 22.63933192 -23.4375 23.4375 C-22 25 -22 25 -22 27 C-21.4328125 27.27714844 -20.865625 27.55429688 -20.28125 27.83984375 C-17.19605656 29.4088548 -14.21613865 31.14924876 -11.21875 32.87890625 C-9.13081882 33.93389964 -7.28371779 34.53806617 -5 35 C-5.61875 34.278125 -6.2375 33.55625 -6.875 32.8125 C-8.89430474 30.13989079 -10.19066607 28.23733572 -11 25 C-10.125 22.1875 -10.125 22.1875 -9 20 C-7.02 20.33 -5.04 20.66 -3 21 C-3.495 18.03 -3.495 18.03 -4 15 C-4.99 15.33 -5.98 15.66 -7 16 C-8.56118428 16.06740865 -10.1250252 16.08514456 -11.6875 16.0625 C-12.89986328 16.04896484 -12.89986328 16.04896484 -14.13671875 16.03515625 C-14.75160156 16.02355469 -15.36648437 16.01195313 -16 16 C-15 14 -15 14 -12 13 C-12 12.01 -12 11.02 -12 10 C-9.36 10.66 -6.72 11.32 -4 12 C-3.81824219 10.95199219 -3.81824219 10.95199219 -3.6328125 9.8828125 C-3.46523437 8.97273438 -3.29765625 8.06265625 -3.125 7.125 C-2.96257812 6.22007813 -2.80015625 5.31515625 -2.6328125 4.3828125 C-2 2 -2 2 0 0 Z M-4 36 C-3 39 -3 39 -3 39 Z M-28 40 C-28 41.98 -28 43.96 -28 46 C-28.9075 45.835 -29.815 45.67 -30.75 45.5 C-34.11087503 44.89862854 -34.11087503 44.89862854 -38 45 C-38 44.34 -38 43.68 -38 43 C-40.475 42.01 -40.475 42.01 -43 41 C-42.88864106 44.4797406 -42.75837868 47.95853934 -42.625 51.4375 C-42.5940625 52.41138672 -42.563125 53.38527344 -42.53125 54.38867188 C-42.28599613 60.49958085 -41.50836426 66.0707795 -40 72 C-39.34 71.01 -38.68 70.02 -38 69 C-37.34 69 -36.68 69 -36 69 C-35.67 69.66 -35.34 70.32 -35 71 C-34.01 71 -33.02 71 -32 71 C-31.18395001 69.0848421 -30.37229368 67.16781166 -29.5625 65.25 C-29.11003906 64.18265625 -28.65757813 63.1153125 -28.19140625 62.015625 C-27.26020447 59.6586159 -26.5215928 57.47007165 -26 55 C-25.34 55 -24.68 55 -24 55 C-24.01160156 55.71285156 -24.02320312 56.42570312 -24.03515625 57.16015625 C-24.08606026 62.56325366 -23.94608271 67.67828475 -23 73 C-19.87879164 71.43939582 -19.50295191 68.31264415 -18.375 65.1875 C-15.9027619 58.6299434 -12.85081646 53.2819437 -8.734375 47.5859375 C-7.07359536 45.10973002 -5.99124509 42.8017846 -5 40 C-8.62935175 39.85482593 -11.41099469 39.76439788 -14.8125 41.125 C-19.47627834 42.40525288 -23.39284356 41.18365679 -28 40 Z M-41 72 C-40 75 -40 75 -40 75 Z M-33 72 C-33.33 72.66 -33.66 73.32 -34 74 C-33.34 74 -32.68 74 -32 74 C-32.33 73.34 -32.66 72.68 -33 72 Z " fill="#070909" transform="translate(121,85)"/>
<path d="M0 0 C0.66 0.33 1.32 0.66 2 1 C-3.75 5 -3.75 5 -6 5 C-6.0825 6.258125 -6.165 7.51625 -6.25 8.8125 C-6.29640625 9.52019531 -6.3428125 10.22789062 -6.390625 10.95703125 C-6.17389346 13.1382577 -6.17389346 13.1382577 -4.33984375 14.63671875 C7.39488803 21.47381623 23.19645678 22.46157526 36.48461914 24.02099609 C46.18983267 25.16038235 55.78243412 26.56050689 65.375 28.4375 C66.39013672 28.63069824 67.40527344 28.82389648 68.45117188 29.02294922 C84.22403574 32.22403574 84.22403574 32.22403574 89 37 C89.125 39.625 89.125 39.625 89 42 C81.70275056 46.11642325 74.66662862 48.32523537 66.5 50.0625 C53.25972601 52.39017294 53.25972601 52.39017294 42 59 C41.69384054 61.48599612 41.69384054 61.48599612 43 64 C48.2011479 67.52653902 54.28639222 69.13266398 60.3125 70.625 C61.14338135 70.83809814 61.9742627 71.05119629 62.83032227 71.27075195 C68.1410449 72.6094287 73.44818838 73.75085898 78.87109375 74.54296875 C81.16796508 75.03605856 82.9245472 75.92006974 85 77 C40.46241835 77.90297655 40.46241835 77.90297655 24 65 C23.34 64.34 22.68 63.68 22 63 C22.0234375 60.59375 22.0234375 60.59375 23 58 C31.97529129 50.96289454 43.70865925 49.28595975 54.58203125 47.125 C65.1283786 45.30013629 65.1283786 45.30013629 74 40 C73.6814823 37.89179203 73.6814823 37.89179203 73 36 C59.10206626 32.02599019 44.92033815 29.9059081 30.67138672 27.59814453 C-6.09483383 21.60816978 -6.09483383 21.60816978 -13 15 C-13.3125 11.625 -13.3125 11.625 -12 8 C-8.58302832 4.60622043 -4.45710836 1.84077641 0 0 Z " fill="#2989AF" transform="translate(37,170)"/>
<path d="M0 0 C0.99 0.33 1.98 0.66 3 1 C2.52949219 1.31453125 2.05898438 1.6290625 1.57421875 1.953125 C-3.54236221 5.47011233 -6.52024414 7.52126139 -7.75 13.875 C-7.64789638 16.75539699 -7.28537872 17.71273135 -5.23046875 19.78125 C2.66086389 25.26619671 11.09732122 26.44788671 20.41015625 27.83984375 C22.63872101 28.1839267 24.86723515 28.52833767 27.09570312 28.87304688 C30.58639749 29.40797679 34.07750088 29.93975875 37.56958008 30.46557617 C40.95536774 30.97728991 44.33904162 31.5014798 47.72265625 32.02734375 C49.28379906 32.25719215 49.28379906 32.25719215 50.8764801 32.49168396 C56.13742428 33.31732685 60.41524716 34.2499286 65 37 C65 38.32 65 39.64 65 41 C60.65004247 43.39237283 56.79961049 44.6379414 51.91796875 45.49609375 C51.23284714 45.6177037 50.54772552 45.73931366 49.84184265 45.86460876 C39.79314315 47.61124455 29.68462049 49.01273753 19.58813477 50.45043945 C16.94987427 50.82746957 14.31280556 51.21208879 11.67578125 51.59765625 C10.87682938 51.70916519 10.0778775 51.82067413 9.25471497 51.93556213 C5.22325649 52.5293462 1.74649901 53.31457836 -2 55 C-3.41053235 55.30115381 -4.82773094 55.57282133 -6.25 55.8125 C-11.40931047 56.87904653 -15.55468284 59.24663571 -20 62 C-20 63.65 -20 65.3 -20 67 C8.20055173 79.60024652 41.92785422 77.34549571 72.29736328 77.26074219 C76.45498434 77.24923633 80.61235008 77.25601842 84.76996231 77.26788712 C88.04754491 77.27518793 91.32506894 77.27278244 94.6026535 77.26763153 C96.13486514 77.26632353 97.66708259 77.26783907 99.19928741 77.27259064 C109.93642457 77.29866376 120.36268035 76.46003243 131 75 C130.3725589 74.9275708 129.7451178 74.8551416 129.09866333 74.78051758 C103.21209031 71.75819683 103.21209031 71.75819683 95.1640625 65.59375 C94 64 94 64 94 60 C94.66 60 95.32 60 96 60 C96.33 60.99 96.66 61.98 97 63 C99.50447516 64.21869929 99.50447516 64.21869929 102 65 C102.0928125 63.8553125 102.0928125 63.8553125 102.1875 62.6875 C103 60 103 60 105.125 58.3125 C108.35494689 56.83795903 111.56289246 55.87612545 115 55 C114.67 55.99 114.34 56.98 114 58 C111.66666667 59 109.33333333 60 107 61 C106.67 61.99 106.34 62.98 106 64 C106.62044189 64.11593506 107.24088379 64.23187012 107.88012695 64.35131836 C110.69132938 64.87787607 113.50191616 65.40765086 116.3125 65.9375 C117.28896484 66.11990234 118.26542969 66.30230469 119.27148438 66.49023438 C120.20927734 66.66748047 121.14707031 66.84472656 122.11328125 67.02734375 C123.40939331 67.27085571 123.40939331 67.27085571 124.73168945 67.51928711 C127 68 127 68 130 69 C131.155 69 132.31 69 133.5 69 C137 69 137 69 140 70 C140 70.66 140 71.32 140 72 C129.93172831 72.79836516 120.69198892 70.38834491 111 68 C111 68.66 111 69.32 111 70 C111.84304687 70.06058594 112.68609375 70.12117188 113.5546875 70.18359375 C115.19824219 70.30927734 115.19824219 70.30927734 116.875 70.4375 C118.51082031 70.55931641 118.51082031 70.55931641 120.1796875 70.68359375 C123 71 123 71 125 72 C127.20266316 72.38787256 129.41224568 72.73709495 131.625 73.0625 C132.81351563 73.23910156 134.00203125 73.41570312 135.2265625 73.59765625 C136.14179688 73.73042969 137.05703125 73.86320312 138 74 C137.67 75.32 137.34 76.64 137 78 C114.74982195 79.88637361 92.5201026 80.20076951 70.20464325 80.18847656 C68.01982884 80.18750878 65.83502167 80.18846604 63.65020752 80.18969727 C22.49995541 80.19820398 22.49995541 80.19820398 3.5625 77.25 C2.50869141 77.105625 1.45488281 76.96125 0.36914062 76.8125 C-7.50673032 75.61199847 -17.17705484 73.82294516 -23 68 C-23.33333333 62.66666667 -23.33333333 62.66666667 -22 60 C-21.34 60 -20.68 60 -20 60 C-20 59.34 -20 58.68 -20 58 C-17.35261084 56.5393715 -16.10551666 56 -13 56 C-13 55.34 -13 54.68 -13 54 C-12.00419922 53.80083984 -12.00419922 53.80083984 -10.98828125 53.59765625 C-10.10527344 53.42105469 -9.22226562 53.24445313 -8.3125 53.0625 C-3 52 -3 52 -0.54296875 51.55859375 C2.03868093 51.05483838 2.03868093 51.05483838 4.55859375 50.0390625 C9.6433884 48.50381236 14.79808821 47.99545984 20.0625 47.375 C21.67608398 47.17390625 21.67608398 47.17390625 23.32226562 46.96875 C27.91402565 46.4107928 32.36868891 45.92128083 37 46 C37.495 45.01 37.495 45.01 38 44 C40.17986817 43.76633706 42.37148546 43.63917389 44.5625 43.5625 C53.42324304 43.19660436 53.42324304 43.19660436 61 39 C53.6419589 35.56624748 46.00227892 34.85450402 38 35 C37.67 34.67 37.34 34.34 37 34 C35.32779197 33.69076378 33.64556225 33.43538816 31.9609375 33.203125 C-2.68794319 28.19739961 -2.68794319 28.19739961 -9.875 19.8125 C-11.39617085 16.00957287 -11.27025634 12.82625994 -10 9 C-7.11133037 5.30892214 -4.46155603 3.40220332 0 2 C0 1.34 0 0.68 0 0 Z " fill="#000916" transform="translate(26,170)"/>
<path d="M0 0 C1.31097656 0.54333984 1.31097656 0.54333984 2.6484375 1.09765625 C3.62683594 1.51337891 3.62683594 1.51337891 4.625 1.9375 C4.625 2.5975 4.625 3.2575 4.625 3.9375 C3.66400391 4.23527344 3.66400391 4.23527344 2.68359375 4.5390625 C-5.11222684 7.58303418 -7.66087404 12.14565293 -10.90234375 19.46484375 C-11.38832031 20.61082031 -11.87429687 21.75679687 -12.375 22.9375 C-15.16741071 28.72991071 -15.16741071 28.72991071 -16.375 29.9375 C-18.025 29.9375 -19.675 29.9375 -21.375 29.9375 C-21.045 26.6375 -20.715 23.3375 -20.375 19.9375 C-20.77847656 20.7315625 -21.18195313 21.525625 -21.59765625 22.34375 C-23.62273875 25.74898427 -25.39987356 28.30226812 -28.375 30.9375 C-33.82944064 32.03623624 -40.26873964 32.49063018 -45.375 29.9375 C-44.19450037 21.65905956 -38.51118667 13.96378273 -32.08203125 8.77734375 C-28.23214277 6.16075288 -24.27924711 3.76690217 -20.25 1.4375 C-19.47358154 0.97915771 -18.69716309 0.52081543 -17.8972168 0.04858398 C-11.06053828 -3.7515229 -7.14136573 -2.99165321 0 0 Z " fill="#8F8C7F" transform="translate(191.375,202.0625)"/>
<path d="M0 0 C0.99 0.33 1.98 0.66 3 1 C2.52949219 1.31453125 2.05898438 1.6290625 1.57421875 1.953125 C-3.54236221 5.47011233 -6.52024414 7.52126139 -7.75 13.875 C-7.64789638 16.75539699 -7.28537872 17.71273135 -5.23046875 19.78125 C2.66086389 25.26619671 11.09732122 26.44788671 20.41015625 27.83984375 C22.63872101 28.1839267 24.86723515 28.52833767 27.09570312 28.87304688 C30.58639749 29.40797679 34.07750088 29.93975875 37.56958008 30.46557617 C40.95536774 30.97728991 44.33904162 31.5014798 47.72265625 32.02734375 C49.28379906 32.25719215 49.28379906 32.25719215 50.8764801 32.49168396 C56.13742428 33.31732685 60.41524716 34.2499286 65 37 C65 38.32 65 39.64 65 41 C60.65004247 43.39237283 56.79961049 44.6379414 51.91796875 45.49609375 C51.23284714 45.6177037 50.54772552 45.73931366 49.84184265 45.86460876 C39.79314315 47.61124455 29.68462049 49.01273753 19.58813477 50.45043945 C16.94987427 50.82746957 14.31280556 51.21208879 11.67578125 51.59765625 C10.87682938 51.70916519 10.0778775 51.82067413 9.25471497 51.93556213 C5.22325649 52.5293462 1.74649901 53.31457836 -2 55 C-3.41053235 55.30115381 -4.82773094 55.57282133 -6.25 55.8125 C-11.21869887 56.87960311 -16.11391151 58.64304409 -20 62 C-20.80655179 64.58501591 -20.80655179 64.58501591 -21 67 C-21.66 66.67 -22.32 66.34 -23 66 C-22.67 64.02 -22.34 62.04 -22 60 C-21.34 60 -20.68 60 -20 60 C-20 59.34 -20 58.68 -20 58 C-17.35261084 56.5393715 -16.10551666 56 -13 56 C-13 55.34 -13 54.68 -13 54 C-12.00419922 53.80083984 -12.00419922 53.80083984 -10.98828125 53.59765625 C-10.10527344 53.42105469 -9.22226562 53.24445313 -8.3125 53.0625 C-3 52 -3 52 -0.54296875 51.55859375 C2.03868093 51.05483838 2.03868093 51.05483838 4.55859375 50.0390625 C9.6433884 48.50381236 14.79808821 47.99545984 20.0625 47.375 C21.67608398 47.17390625 21.67608398 47.17390625 23.32226562 46.96875 C27.91402565 46.4107928 32.36868891 45.92128083 37 46 C37.495 45.01 37.495 45.01 38 44 C40.17986817 43.76633706 42.37148546 43.63917389 44.5625 43.5625 C53.42324304 43.19660436 53.42324304 43.19660436 61 39 C53.6419589 35.56624748 46.00227892 34.85450402 38 35 C37.67 34.67 37.34 34.34 37 34 C35.32779197 33.69076378 33.64556225 33.43538816 31.9609375 33.203125 C-2.68794319 28.19739961 -2.68794319 28.19739961 -9.875 19.8125 C-11.39617085 16.00957287 -11.27025634 12.82625994 -10 9 C-7.11133037 5.30892214 -4.46155603 3.40220332 0 2 C0 1.34 0 0.68 0 0 Z " fill="#000F20" transform="translate(26,170)"/>
<path d="M0 0 C0 1.32 0 2.64 0 4 C-1.15628906 4.39832031 -1.15628906 4.39832031 -2.3359375 4.8046875 C-3.33882812 5.15789062 -4.34171875 5.51109375 -5.375 5.875 C-6.87160156 6.39707031 -6.87160156 6.39707031 -8.3984375 6.9296875 C-11.10442118 7.84782502 -11.10442118 7.84782502 -13 10 C-13.08174485 12.06194105 -13.08174485 12.06194105 -12 14 C-9.6680463 15.29774409 -9.6680463 15.29774409 -6.8125 16.125 C-5.82121094 16.45628906 -4.82992187 16.78757813 -3.80859375 17.12890625 C-1.66980884 17.79225678 0.47611016 18.43265298 2.625 19.0625 C3.40875 19.371875 4.1925 19.68125 5 20 C5.495 21.485 5.495 21.485 6 23 C-0.05370537 24.32450198 -4.52481564 23.47969853 -10.4375 21.8125 C-11.24509766 21.60302734 -12.05269531 21.39355469 -12.88476562 21.17773438 C-19.00465431 19.51584679 -25.42980059 17.57019941 -30 13 C-30.125 10.6875 -30.125 10.6875 -29 8 C-23.92770843 3.66741762 -18.61653403 2.15795888 -12.25 0.625 C-11.50492188 0.44509521 -10.75984375 0.26519043 -9.9921875 0.07983398 C-6.29043682 -0.7382763 -3.6186397 -1.10485921 0 0 Z " fill="#023057" transform="translate(108,220)"/>
<path d="M0 0 C0.97582031 0.10054687 1.95164062 0.20109375 2.95703125 0.3046875 C3.98183594 0.41039062 5.00664063 0.51609375 6.0625 0.625 C9.02315567 0.86834156 11.98397478 1.10885636 14.9453125 1.34375 C17.0625 1.625 17.0625 1.625 18.0625 2.625 C19.70763988 2.67277176 21.35458091 2.66192385 23 2.625 C28.41935085 2.56825287 33.68669346 2.97197361 39.0625 3.625 C39.0625 4.285 39.0625 4.945 39.0625 5.625 C40.0525 5.295 41.0425 4.965 42.0625 4.625 C43.70575558 4.59791144 45.35049297 4.63437552 46.9921875 4.7109375 C47.95253906 4.75476563 48.91289063 4.79859375 49.90234375 4.84375 C51.40474609 4.92109375 51.40474609 4.92109375 52.9375 5 C54.42830078 5.06574219 54.42830078 5.06574219 55.94921875 5.1328125 C60.43004786 5.34875607 64.67149661 5.66006345 69.0625 6.625 C69.0625 7.285 69.0625 7.945 69.0625 8.625 C70.3928125 8.315625 70.3928125 8.315625 71.75 8 C78.52894662 7.01774447 85.93416865 8.53996493 92.33984375 10.76171875 C94.99196484 11.95053126 94.99196484 11.95053126 97.0625 10.625 C90.12957281 8.02844742 83.1803153 5.66307293 76.0625 3.625 C76.0625 2.635 76.0625 1.645 76.0625 0.625 C87.04972489 3.11694791 96.70728497 6.24881993 106.0625 12.625 C105.7325 13.285 105.4025 13.945 105.0625 14.625 C97.82878251 14.90972197 90.99991686 13.80649882 83.875 12.625 C81.56957949 12.24651721 79.26360558 11.87138632 76.95703125 11.5 C75.94487549 11.33242187 74.93271973 11.16484375 73.88989258 10.9921875 C71.24085106 10.64816208 68.72962239 10.55657308 66.0625 10.625 C66.0625 9.965 66.0625 9.305 66.0625 8.625 C65.50320801 8.7993457 64.94391602 8.97369141 64.36767578 9.15332031 C61.76219626 9.68644745 59.81396034 9.51766379 57.1796875 9.171875 C56.19339355 9.0486084 55.20709961 8.9253418 54.19091797 8.79833984 C52.58047607 8.58878662 52.58047607 8.58878662 50.9375 8.375 C38.49068201 6.8385987 26.0335979 5.68392614 13.53857422 4.62792969 C9.71224985 4.3042134 5.88710338 3.96852725 2.0625 3.625 C1.16176758 3.54668945 0.26103516 3.46837891 -0.66699219 3.38769531 C-2.43302861 3.20819139 -4.18910761 2.93196966 -5.9375 2.625 C-6.2675 1.965 -6.5975 1.305 -6.9375 0.625 C-4.34983352 -0.66883324 -2.86884492 -0.30458325 0 0 Z " fill="#030405" transform="translate(54.9375,179.375)"/>
<path d="M0 0 C8.25568442 -0.32095533 16.20760204 0.51075886 24.375 1.5625 C27.8878469 2.05991008 27.8878469 2.05991008 31 2 C35.38303937 2.4583685 39.75561895 3.003453 44.12915039 3.54418945 C46.26578154 3.8067588 48.40331911 4.06072723 50.54101562 4.31445312 C63.45177594 5.88424245 75.86537234 8.12138439 88 13 C87.1640625 14.953125 87.1640625 14.953125 86 17 C83.375 17.75 83.375 17.75 81 18 C81 18.66 81 19.32 81 20 C79.18774495 21.82671454 77.21987352 23.42288406 75.25 25.078125 C73.03804909 26.91954334 73.03804909 26.91954334 71.25 28.734375 C64.88710335 34.92683692 56.95258847 38.28428815 49 42 C49 41.01 49 40.02 49 39 C49.59425781 38.81566406 50.18851563 38.63132813 50.80078125 38.44140625 C61.29546889 34.76908165 68.62152179 27.52675518 76.2109375 19.65625 C78.54624159 17.49430909 81.10294245 16.27187892 84 15 C84.33 14.34 84.66 13.68 85 13 C83.88818359 12.83564453 83.88818359 12.83564453 82.75390625 12.66796875 C76.2715178 11.69204001 69.82317191 10.61519896 63.375 9.4375 C57.59182103 8.38454206 51.87793702 7.58759291 46.00390625 7.2109375 C44 7 44 7 42 6 C39.96624879 5.71887354 37.92548331 5.48782205 35.8828125 5.28125 C34.01109375 5.08982422 34.01109375 5.08982422 32.1015625 4.89453125 C30.78929688 4.76433594 29.47703125 4.63414062 28.125 4.5 C26.85140625 4.36980469 25.5778125 4.23960937 24.265625 4.10546875 C17.2445913 3.39475061 10.23656664 2.77045306 3.19091797 2.36132812 C2.46791504 2.24208984 1.74491211 2.12285156 1 2 C0.67 1.34 0.34 0.68 0 0 Z " fill="#000F1E" transform="translate(73,188)"/>
<path d="M0 0 C-3.96386492 2.10346606 -8.10353297 3.46369869 -12.34375 4.90234375 C-14.98245093 5.99274811 -16.88559925 7.08928006 -19 9 C-19.8042208 11.59855733 -19.8042208 11.59855733 -20 14 C-16.92954674 15.61108489 -13.81907822 16.87459421 -10.5625 18.0625 C-9.63566406 18.40410156 -8.70882812 18.74570313 -7.75390625 19.09765625 C-5.17572379 19.94242242 -2.66909453 20.5301231 0 21 C0 21.33 0 21.66 0 22 C-10.69811434 21.67032005 -23.64282923 20.80867847 -33 15 C-33.75 12.875 -33.75 12.875 -34 11 C-25.12277691 3.28780988 -11.73683069 -0.61772793 0 0 Z " fill="#2888AE" transform="translate(64,221)"/>
<path d="M0 0 C2.475 0.495 2.475 0.495 5 1 C4.74323894 8.06092922 2.6234739 12.64004353 -2 18 C-4.24784421 19.85222363 -6.56383292 21.39212973 -9 23 C-9 23.66 -9 24.32 -9 25 C-8.40832031 24.84402344 -7.81664062 24.68804687 -7.20703125 24.52734375 C0.64147627 22.5940246 0.64147627 22.5940246 5 24 C5.625 25.875 5.625 25.875 6 28 C3.16346212 30.83653788 0.02992888 31.21161132 -3.78515625 32.21875 C-6.17640092 32.77386246 -6.17640092 32.77386246 -7 35 C-9.31 35 -11.62 35 -14 35 C-14 34.34 -14 33.68 -14 33 C-11.9170757 32.35284867 -9.83364461 31.70732834 -7.75 31.0625 C-6.58984375 30.70285156 -5.4296875 30.34320313 -4.234375 29.97265625 C-1.82910942 29.24933363 0.55654044 28.57457589 3 28 C2.67 27.34 2.34 26.68 2 26 C1.35933594 26.13277344 0.71867188 26.26554687 0.05859375 26.40234375 C-4.94983993 27.42493006 -9.93111794 28.33884147 -15 29 C-12.15035089 23.82598273 -9.24248735 20.12998983 -4.64453125 16.43359375 C-0.71709452 13.00991375 1.39558834 9.13749913 2 4 C1.01 4 0.02 4 -1 4 C-1.26941406 4.57234375 -1.53882813 5.1446875 -1.81640625 5.734375 C-3.03385639 8.0648076 -4.39091733 10.12492458 -5.9375 12.25 C-6.69353516 13.30960938 -6.69353516 13.30960938 -7.46484375 14.390625 C-7.97144531 14.92171875 -8.47804687 15.4528125 -9 16 C-9.99 16 -10.98 16 -12 16 C-12 12.04 -12 8.08 -12 4 C-11.34 3.67 -10.68 3.34 -10 3 C-9.67 5.64 -9.34 8.28 -9 11 C-7.87278564 9.73113036 -6.74831342 8.45982438 -5.625 7.1875 C-4.68527344 6.12595703 -4.68527344 6.12595703 -3.7265625 5.04296875 C-1.859401 2.91196181 -1.859401 2.91196181 0 0 Z " fill="#020404" transform="translate(137,96)"/>
<path d="M0 0 C0.99 0 1.98 0 3 0 C3.60172399 39.59806704 3.60172399 39.59806704 -4.41796875 48.58984375 C-7.32640423 51.16930452 -10.32342749 52.8075981 -14 54 C-15.485 54.495 -15.485 54.495 -17 55 C-17 55.66 -17 56.32 -17 57 C-17.66 57 -18.32 57 -19 57 C-18.828125 54.63671875 -18.828125 54.63671875 -18 52 C-15.671875 50.76953125 -15.671875 50.76953125 -12.75 49.8125 C-7.12808571 47.50532478 -5.1905921 45.09220298 -2.8046875 39.59765625 C-1.20084205 34.42019401 -0.75356121 29.13438363 -0.3125 23.75 C-0.20550781 22.52796875 -0.09851563 21.3059375 0.01171875 20.046875 C0.35726724 16.88767928 0.35726724 16.88767928 -2 15 C-2 14.01 -2 13.02 -2 12 C-1.01 12 -0.02 12 1 12 C0.67 9.69 0.34 7.38 0 5 C-0.66 5 -1.32 5 -2 5 C-2.33 5.99 -2.66 6.98 -3 8 C-7.455 8.495 -7.455 8.495 -12 9 C-12.33 7.35 -12.66 5.7 -13 4 C-11.68 4 -10.36 4 -9 4 C-9 4.66 -9 5.32 -9 6 C-7.68648079 5.18914873 -6.37421332 4.37626942 -5.0625 3.5625 C-4.33160156 3.11003906 -3.60070312 2.65757813 -2.84765625 2.19140625 C-1.06100191 1.13135967 -1.06100191 1.13135967 0 0 Z " fill="#020404" transform="translate(64,123)"/>
<path d="M0 0 C-0.62076576 6.62548068 -5.62462318 10.42719231 -10.32958984 14.62646484 C-15.37603974 18.77603034 -21.17125495 22.08562747 -27 25 C-26.09507813 25.09087891 -26.09507813 25.09087891 -25.171875 25.18359375 C-24.37265625 25.26738281 -23.5734375 25.35117188 -22.75 25.4375 C-21.56664062 25.55931641 -21.56664062 25.55931641 -20.359375 25.68359375 C-18.17635361 25.97634993 -16.1226818 26.42064419 -14 27 C-14.99 29.475 -14.99 29.475 -16 32 C-12.7 31.01 -9.4 30.02 -6 29 C-6 29.99 -6 30.98 -6 32 C-9.465 32.495 -9.465 32.495 -13 33 C-13 33.66 -13 34.32 -13 35 C-15.31 35 -17.62 35 -20 35 C-20 33.02 -20 31.04 -20 29 C-25.94 28.01 -25.94 28.01 -32 27 C-32 24 -32 24 -30 22 C-28.845 21.608125 -27.69 21.21625 -26.5 20.8125 C-19.88086014 18.45284319 -13.80965919 14.10539875 -9 9 C-11.97 8.505 -11.97 8.505 -15 8 C-14 6 -14 6 -11.71484375 5.1484375 C-10.34005859 4.76558594 -10.34005859 4.76558594 -8.9375 4.375 C-8.01839844 4.11460938 -7.09929688 3.85421875 -6.15234375 3.5859375 C-5.44207031 3.39257812 -4.73179688 3.19921875 -4 3 C-4 2.34 -4 1.68 -4 1 C-2 0 -2 0 0 0 Z " fill="#030404" transform="translate(56,98)"/>
<path d="M0 0 C-0.85464844 0.42152344 -1.70929688 0.84304687 -2.58984375 1.27734375 C-4.24693359 2.09912109 -4.24693359 2.09912109 -5.9375 2.9375 C-7.03964844 3.48277344 -8.14179687 4.02804688 -9.27734375 4.58984375 C-11.84794414 5.74704978 -11.84794414 5.74704978 -13 7 C-13.58488562 9.37124598 -13.58488562 9.37124598 -13 12 C-9.06207459 15.26559668 -4.70389966 17.11844014 0 19 C-3.18462013 20.04305255 -5.02604392 19.95164191 -8.1875 18.890625 C-9.35925781 18.50003906 -9.35925781 18.50003906 -10.5546875 18.1015625 C-11.36164063 17.82054687 -12.16859375 17.53953125 -13 17.25 C-13.80695313 16.98445313 -14.61390625 16.71890625 -15.4453125 16.4453125 C-19.42348142 15.09299765 -22.82566968 13.86379801 -26 11 C-25.6605954 8.53931669 -25.29137174 7.28160929 -23.484375 5.53515625 C-20.01022376 3.38839299 -16.40721287 2.37108485 -12.5 1.25 C-11.74074219 1.01667969 -10.98148438 0.78335938 -10.19921875 0.54296875 C-9.46316406 0.32769531 -8.72710937 0.11242187 -7.96875 -0.109375 C-7.30294922 -0.30499023 -6.63714844 -0.50060547 -5.95117188 -0.70214844 C-3.69808342 -1.04608837 -2.15584118 -0.68376457 0 0 Z " fill="#2988AD" transform="translate(120,222)"/>
<path d="M0 0 C0.66 0 1.32 0 2 0 C2 0.66 2 1.32 2 2 C3.41702513 1.85769192 4.8336096 1.71099254 6.25 1.5625 C7.03890625 1.48128906 7.8278125 1.40007812 8.640625 1.31640625 C10.82364639 1.02365007 12.8773182 0.57935581 15 0 C13.94219471 6.94896707 7.53039011 12.89196452 2.35546875 17.203125 C-0.92557188 19.54461727 -3.93322115 21.61138771 -7.734375 22.99609375 C-8.48203125 23.32738281 -9.2296875 23.65867187 -10 24 C-10.33 24.99 -10.66 25.98 -11 27 C-12.65 26.67 -14.3 26.34 -16 26 C-15.79296875 24.125 -15.79296875 24.125 -15 22 C-12.92578125 20.875 -12.92578125 20.875 -10.3125 20 C-6.07634437 18.46507342 -2.68453717 16.63181227 1 14 C2.3191582 13.30570621 3.64649406 12.62469505 5 12 C5 11.34 5 10.68 5 10 C5.66 10 6.32 10 7 10 C7 8.35 7 6.7 7 5 C4.69 4.67 2.38 4.34 0 4 C0 2.68 0 1.36 0 0 Z M9 4 C10 6 10 6 10 6 Z " fill="#030404" transform="translate(45,74)"/>
<path d="M0 0 C-1.80510884 2.09012603 -3.0025331 3.00096499 -5.625 4 C-6.40875 4.33 -7.1925 4.66 -8 5 C-8.33 5.99 -8.66 6.98 -9 8 C-8.37955811 8.11593506 -7.75911621 8.23187012 -7.11987305 8.35131836 C-4.30867062 8.87787607 -1.49808384 9.40765086 1.3125 9.9375 C2.28896484 10.11990234 3.26542969 10.30230469 4.27148438 10.49023438 C5.20927734 10.66748047 6.14707031 10.84472656 7.11328125 11.02734375 C7.97735596 11.18968506 8.84143066 11.35202637 9.73168945 11.51928711 C12 12 12 12 15 13 C16.155 13 17.31 13 18.5 13 C22 13 22 13 25 14 C25 14.66 25 15.32 25 16 C14.93172831 16.79836516 5.69198892 14.38834491 -4 12 C-4 12.66 -4 13.32 -4 14 C-4.66 13.67 -5.32 13.34 -6 13 C-6.825 12.87625 -7.65 12.7525 -8.5 12.625 C-11 12 -11 12 -13 9 C-12.9375 6.5 -12.9375 6.5 -12 4 C-8.76323828 1.57242871 -3.91337413 -1.95668706 0 0 Z " fill="#030405" transform="translate(141,226)"/>
<path d="M0 0 C0.66 0 1.32 0 2 0 C2.33 0.99 2.66 1.98 3 3 C9.26471399 6.97568388 14.76821834 9.13215804 22.1875 10.0625 C28.80084151 10.90042076 28.80084151 10.90042076 31 12 C33.20266316 12.38787256 35.41224568 12.73709495 37.625 13.0625 C38.81351563 13.23910156 40.00203125 13.41570312 41.2265625 13.59765625 C42.14179688 13.73042969 43.05703125 13.86320313 44 14 C43.67 15.32 43.34 16.64 43 18 C35.41 18 27.82 18 20 18 C20 17.67 20 17.34 20 17 C28.415 16.01 28.415 16.01 37 15 C35.63488281 14.84144531 34.26976562 14.68289062 32.86328125 14.51953125 C8.93589354 11.54664186 8.93589354 11.54664186 1.1640625 5.59375 C0 4 0 4 0 0 Z " fill="#001122" transform="translate(120,230)"/>
<path d="M0 0 C0.33 0 0.66 0 1 0 C1.80515366 9.25926704 -2.29180218 16.93986059 -8 24 C-8.66 24.33 -9.32 24.66 -10 25 C-10.33 25.99 -10.66 26.98 -11 28 C-8.69 28 -6.38 28 -4 28 C-5.40508004 32.47070922 -7.59346112 34.83678532 -11 38 C-11.763125 38.763125 -12.52625 39.52625 -13.3125 40.3125 C-13.869375 40.869375 -14.42625 41.42625 -15 42 C-16.32 41.34 -17.64 40.68 -19 40 C-17.02 39.34 -15.04 38.68 -13 38 C-13 37.34 -13 36.68 -13 36 C-11.625 34.375 -11.625 34.375 -10 33 C-9.34 33 -8.68 33 -8 33 C-8 32.34 -8 31.68 -8 31 C-8.763125 31.04125 -9.52625 31.0825 -10.3125 31.125 C-13 31 -13 31 -16 29 C-15.8125 27.125 -15.8125 27.125 -15 25 C-13.34795544 24.29788106 -11.68076231 23.63028587 -10 23 C-9.67 22.01 -9.34 21.02 -9 20 C-8.34 20 -7.68 20 -7 20 C-5.25294483 15.79563826 -3.79776276 11.50955547 -2.375 7.1875 C-2.14554688 6.49462891 -1.91609375 5.80175781 -1.6796875 5.08789062 C-1.11841567 3.39238197 -0.55901687 1.69625347 0 0 Z " fill="#020303" transform="translate(71,6)"/>
<path d="M0 0 C1.921875 0.6484375 1.921875 0.6484375 4 2 C4.828125 4.6015625 4.828125 4.6015625 5.25 7.625 C5.39953125 8.62789062 5.5490625 9.63078125 5.703125 10.6640625 C5.85007812 11.82035156 5.85007812 11.82035156 6 13 C5.01 12.67 4.02 12.34 3 12 C1.8125 8.4375 1.8125 8.4375 1 5 C-0.41634833 7.83269666 -0.3463005 10.47466438 -0.5625 13.625 C-0.64628906 14.81351563 -0.73007813 16.00203125 -0.81640625 17.2265625 C-0.87699219 18.14179687 -0.93757813 19.05703125 -1 20 C-3 18 -3 18 -4 15 C-4.99 15.33 -5.98 15.66 -7 16 C-8.56118428 16.06740865 -10.1250252 16.08514456 -11.6875 16.0625 C-12.89986328 16.04896484 -12.89986328 16.04896484 -14.13671875 16.03515625 C-14.75160156 16.02355469 -15.36648437 16.01195313 -16 16 C-15 14 -15 14 -12 13 C-12 12.01 -12 11.02 -12 10 C-9.36 10.66 -6.72 11.32 -4 12 C-3.87882812 11.30132812 -3.75765625 10.60265625 -3.6328125 9.8828125 C-3.46523437 8.97273438 -3.29765625 8.06265625 -3.125 7.125 C-2.96257812 6.22007813 -2.80015625 5.31515625 -2.6328125 4.3828125 C-2 2 -2 2 0 0 Z " fill="#010202" transform="translate(121,85)"/>
<path d="M0 0 C0.53109375 0.16371094 1.0621875 0.32742187 1.609375 0.49609375 C4.53876764 1.11356377 7.25822936 1.09501925 10.25 1.0625 C11.86648437 1.04896484 11.86648437 1.04896484 13.515625 1.03515625 C14.74539062 1.01775391 14.74539062 1.01775391 16 1 C16 1.66 16 2.32 16 3 C14.37548581 3.33569297 12.75037083 3.6684796 11.125 4 C9.76761719 4.2784375 9.76761719 4.2784375 8.3828125 4.5625 C6 5 6 5 4 5 C9.26073468 11.61265533 14.50554259 16.08383885 22 20 C21.67 20.66 21.34 21.32 21 22 C12.35189199 19.68195043 5.58605257 12.8963157 0.75 5.5 C0.1725 4.345 -0.405 3.19 -1 2 C-0.67 1.34 -0.34 0.68 0 0 Z " fill="#030303" transform="translate(86,74)"/>
<path d="M0 0 C2.97 0.33 5.94 0.66 9 1 C9 1.33 9 1.66 9 2 C6.69 2.33 4.38 2.66 2 3 C2.6496875 3.69867188 3.299375 4.39734375 3.96875 5.1171875 C5.22171875 6.48230469 5.22171875 6.48230469 6.5 7.875 C7.3353125 8.77992187 8.170625 9.68484375 9.03125 10.6171875 C11 13 11 13 11 15 C11.71542969 15.27585937 12.43085937 15.55171875 13.16796875 15.8359375 C15.95738855 16.98248522 18.62290358 18.26227115 21.3125 19.625 C22.19550781 20.07101563 23.07851562 20.51703125 23.98828125 20.9765625 C24.98408203 21.48316406 24.98408203 21.48316406 26 22 C26 22.99 26 23.98 26 25 C24.35 25.33 22.7 25.66 21 26 C21.33 24.68 21.66 23.36 22 22 C20.989375 21.773125 19.97875 21.54625 18.9375 21.3125 C9.67999354 18.54823454 3.77997848 11.06621369 -1 3 C-0.67 2.01 -0.34 1.02 0 0 Z " fill="#030404" transform="translate(83,50)"/>
<path d="M0 0 C0.99 0 1.98 0 3 0 C3 0.66 3 1.32 3 2 C7.32564205 3.58255197 11.428721 4.45144652 16 5 C16 5.66 16 6.32 16 7 C13.03 7 10.06 7 7 7 C7.83359371 7.83359371 8.694926 8.63933192 9.5625 9.4375 C11 11 11 11 11 13 C11.56203125 13.27585937 12.1240625 13.55171875 12.703125 13.8359375 C15.08618794 15.04368028 17.4179008 16.32176809 19.75 17.625 C20.54921875 18.07101563 21.3484375 18.51703125 22.171875 18.9765625 C22.77515625 19.31429687 23.3784375 19.65203125 24 20 C23.67 20.66 23.34 21.32 23 22 C14.53860568 19.71756725 6.96233056 13.05210086 1.75 6.0625 C0 3 0 3 0 0 Z " fill="#020303" transform="translate(88,99)"/>
<path d="M0 0 C-1.50383297 4.21073233 -4.20664956 5.83237117 -8 8 C-8.99 8 -9.98 8 -11 8 C-11 8.66 -11 9.32 -11 10 C-11.804375 10.20625 -12.60875 10.4125 -13.4375 10.625 C-14.283125 11.07875 -15.12875 11.5325 -16 12 C-16.89830839 15.05272465 -16.89830839 15.05272465 -17 18 C-13.71536341 20.18975773 -10.79303725 20.99806563 -7 22 C-7 22.33 -7 22.66 -7 23 C-15.01369863 22.65753425 -15.01369863 22.65753425 -18.625 20.25 C-20 18 -20 18 -19.81640625 15.5859375 C-18.24699869 10.61489538 -13.49610958 7.49138623 -9.13671875 4.88671875 C-7.78310946 4.20506825 -6.39481169 3.59279497 -5 3 C-7.97 3 -10.94 3 -14 3 C-9.2903051 -0.1397966 -5.55597581 -1.63411053 0 0 Z " fill="#00101E" transform="translate(58,162)"/>
<path d="M0 0 C0.66 0 1.32 0 2 0 C-0.9885003 8.71645921 -7.62533188 13.65642779 -15.5 17.875 C-16.325 18.24625 -17.15 18.6175 -18 19 C-17.34 20.32 -16.68 21.64 -16 23 C-17.65 22.67 -19.3 22.34 -21 22 C-21.33 22.66 -21.66 23.32 -22 24 C-22.66 23.67 -23.32 23.34 -24 23 C-23.67 21.35 -23.34 19.7 -23 18 C-20.03 17.01 -17.06 16.02 -14 15 C-14 14.34 -14 13.68 -14 13 C-9.61538462 10 -9.61538462 10 -7 10 C-6.67 9.01 -6.34 8.02 -6 7 C-5.34 7 -4.68 7 -4 7 C-3.71125 6.401875 -3.4225 5.80375 -3.125 5.1875 C-2 3 -2 3 0 0 Z " fill="#030403" transform="translate(59,53)"/>
<path d="M0 0 C6.42990108 0.17002142 12.36863855 1.47984599 18.5 3.3125 C19.20640625 3.51319092 19.9128125 3.71388184 20.640625 3.9206543 C25.65284765 5.48758098 25.65284765 5.48758098 27.46875 8.16796875 C27.6440625 8.77253906 27.819375 9.37710938 28 10 C26.02 11.65 24.04 13.3 22 15 C21.34 14.67 20.68 14.34 20 14 C20.0825 13.236875 20.165 12.47375 20.25 11.6875 C20.28534502 8.96605878 20.28534502 8.96605878 18.5 7.5 C15.08471713 5.45083028 11.55687174 4.42564006 7.75 3.3125 C6.63238281 2.97508789 6.63238281 2.97508789 5.4921875 2.63085938 C3.6636386 2.07995041 1.83210095 1.53897854 0 1 C0 0.67 0 0.34 0 0 Z " fill="#2A8AAF" transform="translate(115,197)"/>
<path d="M0 0 C1.32 0.33 2.64 0.66 4 1 C3.50495724 4.16827366 2.65336612 6.92709818 1.4375 9.875 C0.2422763 12.90023128 0 14.41433277 0 17.8125 C0 21 0 21 -1.5 22.69921875 C-1.995 23.12847656 -2.49 23.55773437 -3 24 C-3.09688221 18.55306686 -3.12862175 13.36095333 -2 8 C-4.01136276 10.55991624 -5.62845496 13.04590299 -7 16 C-8 13 -8 13 -6.875 10.25 C-4.78804405 6.63260969 -2.48342516 3.35597995 0 0 Z " fill="#030404" transform="translate(119,145)"/>
<path d="M0 0 C-4.40053219 5.15924464 -9.89612699 8.13973101 -16 11 C-16.66 11 -17.32 11 -18 11 C-18.33 10.01 -18.66 9.02 -19 8 C-13.28045439 2.83845884 -8.03407304 -0.587859 0 0 Z " fill="#012B4E" transform="translate(44,165)"/>
<path d="M0 0 C14.52012244 -0.41795662 27.401901 0.28879842 41 6 C36.87300764 7.37566412 33.6064509 6.16106337 29.5 5.1875 C19.72002169 2.98104727 9.97873583 1.84925411 0 1 C0 0.67 0 0.34 0 0 Z " fill="#00152A" transform="translate(117,194)"/>
<path d="M0 0 C0.66 0.33 1.32 0.66 2 1 C-0.86838849 4.0973209 -3.72787103 6.14549421 -7.375 8.25 C-12.54682628 11.44171609 -15.82919335 14.84911155 -19 20 C-19.99 19.67 -20.98 19.34 -22 19 C-21.04663979 17.68388323 -20.08714226 16.37221039 -19.125 15.0625 C-18.59132812 14.33160156 -18.05765625 13.60070312 -17.5078125 12.84765625 C-16 11 -16 11 -14 10 C-14 9.01 -14 8.02 -14 7 C-13.175 6.773125 -12.35 6.54625 -11.5 6.3125 C-7.8192548 4.93222055 -4.95481334 3.1413929 -1.734375 0.92578125 C-1.16203125 0.62027344 -0.5896875 0.31476563 0 0 Z " fill="#050606" transform="translate(168,199)"/>
<path d="M0 0 C0.66 0 1.32 0 2 0 C2.33 0.99 2.66 1.98 3 3 C8.71652282 6.62779333 14.09882628 8.99257311 20.8125 10.125 C22.27623047 10.37636719 22.27623047 10.37636719 23.76953125 10.6328125 C24.50558594 10.75398437 25.24164063 10.87515625 26 11 C26 11.66 26 12.32 26 13 C17.44451682 12.78756137 8.08405865 10.8262562 1.12109375 5.5859375 C0 4 0 4 0 0 Z " fill="#001528" transform="translate(120,230)"/>
<path d="M0 0 C0.66 0.33 1.32 0.66 2 1 C2 2.32 2 3.64 2 5 C-2.68522881 7.62167192 -6.90758412 8.80179768 -12.125 9.6875 C-13.17880859 9.88182617 -13.17880859 9.88182617 -14.25390625 10.08007812 C-17.57738057 10.67378006 -20.6115136 11 -24 11 C-24 10.34 -24 9.68 -24 9 C-22.90300781 8.80664062 -21.80601563 8.61328125 -20.67578125 8.4140625 C-19.22130418 8.15131825 -17.76687983 7.88828199 -16.3125 7.625 C-15.59126953 7.49867188 -14.87003906 7.37234375 -14.12695312 7.2421875 C-10.17840538 6.52099156 -6.72193636 5.54242408 -3 4 C-2.01 4 -1.02 4 0 4 C0 2.68 0 1.36 0 0 Z " fill="#00152B" transform="translate(89,206)"/>
<path d="M0 0 C0.62366455 0.06566162 1.2473291 0.13132324 1.88989258 0.19897461 C9.81629277 0.98176683 17.72852994 1.31081665 25.6875 1.5625 C27.61625977 1.62727539 27.61625977 1.62727539 29.58398438 1.69335938 C32.72257494 1.79836798 35.86123004 1.90052405 39 2 C39 2.33 39 2.66 39 3 C25.8 3 12.6 3 -1 3 C-0.67 2.01 -0.34 1.02 0 0 Z " fill="#08385B" transform="translate(83,245)"/>
<path d="M0 0 C20.72340426 0.61702128 20.72340426 0.61702128 29 4 C25.86035599 5.89229108 24.23325014 6.17597283 20.6875 5.3125 C19.82769531 5.11527344 18.96789062 4.91804687 18.08203125 4.71484375 C17.06496094 4.47894531 16.04789063 4.24304688 15 4 C12.29493213 3.44172441 9.5849648 2.90892168 6.875 2.375 C5.55981148 2.11240127 4.24470047 1.84941391 2.9296875 1.5859375 C1.96289062 1.39257812 0.99609375 1.19921875 0 1 C0 0.67 0 0.34 0 0 Z " fill="#000812" transform="translate(40,199)"/>
<path d="M0 0 C-3.10086255 1.60893811 -6.24540934 2.980352 -9.5 4.25 C-10.4384375 4.62640625 -11.376875 5.0028125 -12.34375 5.390625 C-15 6 -15 6 -17.34375 5.109375 C-17.8903125 4.74328125 -18.436875 4.3771875 -19 4 C-13.5018812 0.33458746 -6.52793043 -0.34357529 0 0 Z " fill="#247DA3" transform="translate(64,221)"/>
<path d="M0 0 C2 1 2 1 2.88671875 3.36328125 C3.15097656 4.33652344 3.41523437 5.30976562 3.6875 6.3125 C3.95949219 7.27800781 4.23148437 8.24351563 4.51171875 9.23828125 C4.99152353 11.95205711 4.90721887 13.43665005 4 16 C2.41839705 13.03017788 1.29656358 10.09120779 0.3125 6.875 C0.04050781 6.00617187 -0.23148437 5.13734375 -0.51171875 4.2421875 C-1 2 -1 2 0 0 Z " fill="#030303" transform="translate(73,1)"/>
<path d="M0 0 C1 2 1 2 0.44140625 4.1640625 C0.15136719 4.97617188 -0.13867188 5.78828125 -0.4375 6.625 C-0.72496094 7.44226563 -1.01242188 8.25953125 -1.30859375 9.1015625 C-1.65083984 10.04128906 -1.65083984 10.04128906 -2 11 C-4 11 -6 11 -8 11 C-5.36 7.37 -2.72 3.74 0 0 Z " fill="#181917" transform="translate(171,221)"/>
<path d="M0 0 C14.78132118 -0.3690205 14.78132118 -0.3690205 21 2 C21 2.33 21 2.66 21 3 C13.64657821 3.20177072 7.05112439 3.21211746 0 1 C0 0.67 0 0.34 0 0 Z " fill="#000F1F" transform="translate(51,185)"/>
<path d="M0 0 C3 -0.3125 3 -0.3125 6 0 C6.66 0.66 7.32 1.32 8 2 C7.34 2 6.68 2 6 2 C6 2.66 6 3.32 6 4 C6.66 4.33 7.32 4.66 8 5 C4.7 4.34 1.4 3.68 -2 3 C-1.34 2.01 -0.68 1.02 0 0 Z " fill="#2C90B7" transform="translate(99,199)"/>
<path d="M0 0 C1.58294782 -0.05437607 3.16644256 -0.09296271 4.75 -0.125 C5.63171875 -0.14820313 6.5134375 -0.17140625 7.421875 -0.1953125 C10.1135858 0.00860498 11.69904974 0.63448279 14 2 C13.67 2.33 13.34 2.66 13 3 C10.99764659 2.96216483 8.996489 2.84524147 7 2.6875 C5.906875 2.60886719 4.81375 2.53023437 3.6875 2.44921875 C2.800625 2.30097656 1.91375 2.15273437 1 2 C0.67 1.34 0.34 0.68 0 0 Z " fill="#050706" transform="translate(177,194)"/>
<path d="M0 0 C-1 2 -1 2 -2.890625 2.8515625 C-10.71069182 5.41509434 -10.71069182 5.41509434 -15 5 C-10.80265327 0.80265327 -5.80003952 -0.42439314 0 0 Z " fill="#001326" transform="translate(44,165)"/>
<path d="M0 0 C0.33 0 0.66 0 1 0 C1.2475 1.03125 1.495 2.0625 1.75 3.125 C2.84079063 7.00600143 4.62933884 9.76009641 7 13 C4.6875 12.4375 4.6875 12.4375 2 11 C-1.16666667 5.3 -1.16666667 5.3 -0.6875 1.5625 C-0.460625 1.046875 -0.23375 0.53125 0 0 Z " fill="#020404" transform="translate(111,106)"/>
<path d="M0 0 C3.3 0.33 6.6 0.66 10 1 C5.8204355 3.78637633 3.85331323 2.79562512 -1 2 C-0.67 1.34 -0.34 0.68 0 0 Z " fill="#2D92B8" transform="translate(59,193)"/>
<path d="M0 0 C0.99 0 1.98 0 3 0 C2.67 1.32 2.34 2.64 2 4 C-1.63 4 -5.26 4 -9 4 C-9 3.67 -9 3.34 -9 3 C-6.03 3 -3.06 3 0 3 C0 2.01 0 1.02 0 0 Z " fill="#00050A" transform="translate(161,244)"/>
<path d="M0 0 C1 2 1 2 0.25 4.375 C-0.9393833 6.87270493 -2.25776832 8.86180657 -4 11 C-3.56179109 6.44262737 -3.14958831 3.42346555 0 0 Z " fill="#030404" transform="translate(127,163)"/>
<path d="M0 0 C-0.99 0.495 -0.99 0.495 -2 1 C-1.34 1.66 -0.68 2.32 0 3 C-3.3 2.67 -6.6 2.34 -10 2 C-3.75 -1.125 -3.75 -1.125 0 0 Z " fill="#21769D" transform="translate(61,193)"/>
<path d="M0 0 C0.33 0.66 0.66 1.32 1 2 C0.01 3.485 0.01 3.485 -1 5 C-1.38499891 6.65549531 -1.72793135 8.3222433 -2 10 C-2.66 9.34 -3.32 8.68 -4 8 C-3.77256695 5.04337034 -3.38764062 3.44966312 -1.4375 1.1875 C-0.963125 0.795625 -0.48875 0.40375 0 0 Z " fill="#001830" transform="translate(42,172)"/>
<path d="M0 0 C0.66 0 1.32 0 2 0 C1.67 0.66 1.34 1.32 1 2 C0.67 1.34 0.34 0.68 0 0 Z " fill="#000000" transform="translate(27,96)"/>
<path d="M0 0 C2 1 2 1 2 1 Z " fill="#000000" transform="translate(87,150)"/>
<path d="" fill="#000000" transform="translate(0,0)"/>
<path d="M0 0 C2 1 2 1 2 1 Z " fill="#000000" transform="translate(43,78)"/>
<path d="" fill="#000000" transform="translate(0,0)"/>
<path d="" fill="#000000" transform="translate(0,0)"/>
<path d="" fill="#000000" transform="translate(0,0)"/>
<path d="" fill="#000000" transform="translate(0,0)"/>
<path d="" fill="#000000" transform="translate(0,0)"/>
<path d="" fill="#000000" transform="translate(0,0)"/>
<path d="" fill="#000000" transform="translate(0,0)"/>
<path d="" fill="#000000" transform="translate(0,0)"/>
<path d="" fill="#000000" transform="translate(0,0)"/>
<path d="" fill="#000000" transform="translate(0,0)"/>
<path d="" fill="#000000" transform="translate(0,0)"/>
</svg>
